<?xml version="1.0" encoding="UTF-8"?>
<svg xmlns="http://www.w3.org/2000/svg" xmlns:xlink="http://www.w3.org/1999/xlink" width="68px" height="68px" viewBox="0 0 68 68" version="1.1">
<g id="surface1">
<path style=" stroke:none;fill-rule:nonzero;fill:rgb(0%,0%,0%);fill-opacity:1;" d="M 13.699219 10.597656 C 13.300781 10.199219 12.695312 10.296875 12.296875 10.695312 C 9.5 13.902344 8.003906 16.699219 7.003906 20.195312 C 6.800781 20.699219 7.199219 21.304688 7.703125 21.402344 C 8.199219 21.605469 8.800781 21.195312 8.898438 20.699219 C 9.703125 18 10.996094 15.203125 13.804688 11.898438 C 14.097656 11.597656 14.097656 10.898438 13.699219 10.597656 Z M 13.699219 10.597656 "/>
<path style=" stroke:none;fill-rule:nonzero;fill:rgb(0%,0%,0%);fill-opacity:1;" d="M 56.402344 45.402344 L 59.101562 45.402344 C 61.101562 45.296875 62.402344 43.5 61.898438 41.597656 C 61.695312 40.800781 57.003906 32.097656 56.800781 31.601562 C 56.5 31.097656 56.402344 30.601562 56.402344 29.996094 C 56.5 27.296875 56.304688 24.898438 55.894531 22.703125 C 52.601562 4.894531 32.503906 -3.699219 17.601562 6.003906 C 17.097656 6.304688 17 6.898438 17.300781 7.402344 C 17.601562 7.898438 18.203125 8.003906 18.699219 7.703125 C 32.503906 -1.300781 51 6.898438 54 22.898438 C 54.398438 25.003906 54.496094 27.296875 54.496094 29.804688 C 54.496094 30.699219 54.699219 31.503906 55.097656 32.398438 C 55.195312 32.503906 59.898438 41.402344 60.101562 42.003906 C 60.296875 42.703125 59.898438 43.296875 59.101562 43.402344 C 58.199219 43.5 57.402344 43.402344 56.5 43.402344 C 55.003906 43.402344 54.496094 43.800781 54.496094 45.296875 L 54.496094 49.699219 L 49.300781 49.699219 L 47.203125 48.300781 C 46.695312 48 46.105469 48.097656 45.800781 48.601562 C 45.5 49.097656 45.597656 49.699219 46.105469 50 L 48.398438 51.496094 C 48.601562 51.601562 48.804688 51.699219 49 51.699219 L 54.496094 51.699219 C 54.097656 54.398438 51.796875 56.003906 49.796875 55.800781 C 47.105469 55.605469 46.105469 55.800781 44.101562 55.800781 C 42.101562 55.800781 41.703125 56.304688 41.703125 58.296875 C 41.703125 60.898438 41.597656 59.5 41.703125 62.296875 C 41.800781 63.296875 40.898438 63.996094 39.898438 63.996094 L 17.496094 63.996094 C 16.601562 63.996094 15.699219 63.296875 15.699219 62.199219 C 15.699219 61.5 15.699219 46.199219 15.699219 45.296875 C 15.699219 44.800781 15.203125 43.996094 15.097656 43.898438 C 7.800781 36.300781 8.003906 28.296875 8.003906 28.402344 C 8.003906 27.800781 7.597656 27.402344 7.003906 27.402344 C 6.402344 27.402344 6.003906 27.898438 6.003906 28.402344 C 6.003906 33 8.296875 39.703125 13.601562 45.296875 C 13.601562 45.402344 13.699219 45.597656 13.804688 45.597656 L 13.804688 62.296875 C 13.699219 64.394531 15.503906 66.097656 17.601562 66.097656 L 39.898438 66.097656 C 42.003906 66.097656 43.800781 64.394531 43.703125 62.199219 C 43.5 59.703125 43.703125 60.898438 43.703125 58.402344 C 43.703125 58.199219 43.703125 58.101562 43.703125 57.898438 L 44.101562 57.898438 C 46.199219 57.898438 47.105469 57.703125 49.601562 57.898438 C 53 58.199219 56.597656 55.304688 56.5 50.796875 C 56.402344 46.296875 56.5 50.796875 56.5 50.796875 C 56.402344 44.800781 56.304688 48.203125 56.402344 45.402344 Z M 56.402344 45.402344 "/>
<path style=" stroke:none;fill-rule:nonzero;fill:rgb(0%,0%,0%);fill-opacity:1;" d="M 21.003906 37.398438 C 23.101562 39.703125 24.296875 42.597656 24.597656 45.5 C 23.199219 45.800781 22.199219 46.996094 22.199219 48.503906 C 22.199219 50.203125 23.597656 51.601562 25.296875 51.601562 L 26.199219 51.601562 C 26.703125 54.097656 28.898438 56.003906 31.503906 56.003906 C 34.097656 56.003906 36.398438 54.097656 36.796875 51.601562 L 37.605469 51.601562 C 39.304688 51.601562 40.703125 50.203125 40.703125 48.503906 C 40.703125 47.105469 39.703125 45.800781 38.304688 45.5 C 38.402344 44.695312 38.496094 43.996094 38.800781 42.996094 C 38.894531 42.5 38.605469 41.898438 38.097656 41.800781 C 37.605469 41.703125 37 42.003906 36.902344 42.5 C 36.601562 43.597656 36.398438 44.402344 36.300781 45.402344 L 32.398438 45.402344 L 32.398438 40.5 C 32.398438 39.898438 32 39.5 31.398438 39.5 C 30.804688 39.5 30.394531 39.898438 30.394531 40.5 L 30.394531 45.402344 L 26.597656 45.402344 C 26.402344 42.003906 25.003906 38.800781 22.5 36.097656 C 20 33.398438 19 29.695312 19.601562 25.996094 C 20.398438 21.097656 24.402344 17.097656 29.296875 16.300781 C 36.796875 15 43.402344 20.699219 43.402344 28.101562 C 43.402344 31.097656 42.296875 33.902344 40.304688 36.097656 C 39.5 37 38.800781 38.003906 38.195312 39.003906 C 37.894531 39.5 38.097656 40.101562 38.605469 40.402344 C 39.101562 40.703125 39.703125 40.5 40.003906 40.003906 C 40.5 39.101562 41.101562 38.195312 41.800781 37.398438 C 44.101562 34.796875 45.402344 31.503906 45.402344 27.996094 C 45.402344 19.398438 37.699219 12.695312 28.996094 14.203125 C 23.199219 15.203125 18.601562 19.796875 17.601562 25.597656 C 16.902344 29.804688 18.203125 34.203125 21.003906 37.398438 Z M 31.503906 54 C 29.996094 54 28.695312 53 28.199219 51.601562 L 34.699219 51.601562 C 34.300781 52.902344 33 54 31.503906 54 Z M 38.703125 48.398438 C 38.703125 49 38.195312 49.503906 37.605469 49.503906 L 25.296875 49.503906 C 24.703125 49.503906 24.199219 49 24.199219 48.398438 C 24.199219 47.804688 24.703125 47.300781 25.296875 47.300781 L 37.605469 47.300781 C 38.195312 47.300781 38.703125 47.804688 38.703125 48.398438 Z M 38.703125 48.398438 "/>
<path style=" stroke:none;fill-rule:nonzero;fill:rgb(0%,0%,0%);fill-opacity:1;" d="M 31.503906 36.300781 C 32.097656 36.300781 32.503906 35.902344 32.503906 35.300781 L 32.503906 34.203125 C 34.203125 33.699219 35.398438 32.203125 35.398438 30.394531 C 35.398438 28.199219 33.699219 26.402344 31.503906 26.402344 C 30.394531 26.402344 29.597656 25.5 29.597656 24.402344 C 29.597656 23.304688 30.503906 22.402344 31.601562 22.402344 C 32.503906 22.402344 33.203125 22.898438 33.503906 23.800781 C 33.699219 24.296875 34.203125 24.597656 34.796875 24.402344 C 35.300781 24.199219 35.601562 23.703125 35.398438 23.101562 C 35 21.800781 33.902344 20.796875 32.503906 20.496094 L 32.503906 19.398438 C 32.503906 18.796875 32.097656 18.398438 31.503906 18.398438 C 30.902344 18.398438 30.503906 18.796875 30.503906 19.398438 L 30.503906 20.496094 C 28.800781 21.003906 27.597656 22.5 27.597656 24.296875 C 27.597656 26.5 29.296875 28.296875 31.503906 28.296875 C 32.601562 28.296875 33.398438 29.199219 33.398438 30.300781 C 33.398438 31.398438 32.503906 32.300781 31.398438 32.300781 C 30.503906 32.300781 29.804688 31.804688 29.503906 30.902344 C 29.296875 30.394531 28.800781 30.105469 28.199219 30.300781 C 27.695312 30.503906 27.402344 31 27.597656 31.601562 C 27.996094 32.902344 29.105469 33.902344 30.503906 34.203125 L 30.503906 35.300781 C 30.503906 35.902344 30.902344 36.300781 31.503906 36.300781 Z M 31.503906 36.300781 "/>
<path style=" stroke:none;fill-rule:nonzero;fill:rgb(0%,0%,0%);fill-opacity:1;" d="M 32.398438 11.597656 L 32.398438 9.5 C 32.398438 8.898438 32 8.5 31.398438 8.5 C 30.804688 8.5 30.394531 8.898438 30.394531 9.5 L 30.394531 11.695312 C 30.394531 12.296875 30.804688 12.695312 31.398438 12.695312 C 32 12.695312 32.398438 12.199219 32.398438 11.597656 Z M 32.398438 11.597656 "/>
<path style=" stroke:none;fill-rule:nonzero;fill:rgb(0%,0%,0%);fill-opacity:1;" d="M 23.003906 14.699219 C 23.5 14.398438 23.597656 13.804688 23.402344 13.300781 L 22.304688 11.402344 C 22.003906 10.996094 21.402344 10.800781 21.003906 11.101562 C 20.496094 11.402344 20.398438 11.996094 20.605469 12.503906 L 21.703125 14.398438 C 21.894531 14.804688 22.597656 15 23.003906 14.699219 Z M 23.003906 14.699219 "/>
<path style=" stroke:none;fill-rule:nonzero;fill:rgb(0%,0%,0%);fill-opacity:1;" d="M 16.796875 20.699219 C 17.097656 20.195312 16.902344 19.601562 16.398438 19.300781 L 14.503906 18.203125 C 14 17.902344 13.394531 18.097656 13.105469 18.601562 C 12.804688 19.097656 12.996094 19.699219 13.503906 20 L 15.398438 21.097656 C 15.902344 21.304688 16.503906 21.195312 16.796875 20.699219 Z M 16.796875 20.699219 "/>
<path style=" stroke:none;fill-rule:nonzero;fill:rgb(0%,0%,0%);fill-opacity:1;" d="M 12.902344 29.996094 L 15 29.996094 C 15.601562 29.996094 16 29.597656 16 28.996094 C 16 28.402344 15.601562 27.996094 15 27.996094 L 12.804688 27.996094 C 12.199219 27.996094 11.800781 28.402344 11.800781 28.996094 C 11.800781 29.597656 12.296875 29.996094 12.902344 29.996094 Z M 12.902344 29.996094 "/>
<path style=" stroke:none;fill-rule:nonzero;fill:rgb(0%,0%,0%);fill-opacity:1;" d="M 46.503906 28.996094 C 46.503906 29.597656 46.902344 29.996094 47.503906 29.996094 L 49.699219 29.996094 C 50.300781 29.996094 50.699219 29.597656 50.699219 28.996094 C 50.699219 28.402344 50.300781 27.996094 49.699219 27.996094 L 47.503906 27.996094 C 46.902344 27.996094 46.503906 28.5 46.503906 28.996094 Z M 46.503906 28.996094 "/>
<path style=" stroke:none;fill-rule:nonzero;fill:rgb(0%,0%,0%);fill-opacity:1;" d="M 47.902344 18.097656 L 45.996094 19.195312 C 45.5 19.496094 45.402344 20.097656 45.597656 20.605469 C 45.898438 21.097656 46.503906 21.195312 46.996094 21.003906 L 48.902344 19.902344 C 49.398438 19.601562 49.503906 19 49.300781 18.496094 C 49 18 48.398438 17.796875 47.902344 18.097656 Z M 47.902344 18.097656 "/>
<path style=" stroke:none;fill-rule:nonzero;fill:rgb(0%,0%,0%);fill-opacity:1;" d="M 40.703125 14.097656 L 41.800781 12.199219 C 42.101562 11.695312 41.898438 11.101562 41.402344 10.800781 C 40.898438 10.5 40.304688 10.695312 40.003906 11.199219 L 38.894531 13.105469 C 38.605469 13.601562 38.800781 14.203125 39.304688 14.503906 C 39.800781 14.699219 40.402344 14.601562 40.703125 14.097656 Z M 40.703125 14.097656 "/>
</g>
</svg>
