<?xml version="1.0" encoding="UTF-8"?>
<svg xmlns="http://www.w3.org/2000/svg" xmlns:xlink="http://www.w3.org/1999/xlink" width="68px" height="68px" viewBox="0 0 68 68" version="1.1">
<g id="surface1">
<path style=" stroke:none;fill-rule:nonzero;fill:rgb(0%,0%,0%);fill-opacity:1;" d="M 37.300781 9.699219 C 37.898438 9.699219 38.300781 9.300781 38.300781 8.699219 C 38.300781 8.101562 37.898438 7.699219 37.300781 7.699219 L 24.101562 7.699219 C 23.5 7.699219 23.101562 8.101562 23.101562 8.699219 C 23.101562 9.300781 23.5 9.699219 24.101562 9.699219 Z M 37.300781 9.699219 "/>
<path style=" stroke:none;fill-rule:nonzero;fill:rgb(0%,0%,0%);fill-opacity:1;" d="M 20.601562 27.300781 C 20.601562 25.601562 19.300781 24.300781 17.601562 24.300781 L 10.5 24.300781 C 8.800781 24.300781 7.5 25.601562 7.5 27.300781 L 7.5 34.398438 C 7.5 36.101562 8.800781 37.398438 10.5 37.398438 L 17.601562 37.398438 C 19.300781 37.398438 20.601562 36.101562 20.601562 34.398438 Z M 18.601562 34.398438 C 18.601562 35 18.199219 35.398438 17.601562 35.398438 L 10.5 35.398438 C 9.898438 35.398438 9.5 35 9.5 34.398438 L 9.5 27.300781 C 9.5 26.699219 9.898438 26.300781 10.5 26.300781 L 17.601562 26.300781 C 18.199219 26.300781 18.601562 26.699219 18.601562 27.300781 Z M 18.601562 34.398438 "/>
<path style=" stroke:none;fill-rule:nonzero;fill:rgb(0%,0%,0%);fill-opacity:1;" d="M 50.800781 37.398438 C 52.5 37.398438 53.800781 36.101562 53.800781 34.398438 L 53.800781 27.300781 C 53.800781 25.601562 52.5 24.300781 50.800781 24.300781 L 43.699219 24.300781 C 42 24.300781 40.699219 25.601562 40.699219 27.300781 L 40.699219 34.398438 C 40.699219 36.101562 42 37.398438 43.699219 37.398438 Z M 42.699219 34.398438 L 42.699219 27.300781 C 42.699219 26.699219 43.101562 26.300781 43.699219 26.300781 L 50.800781 26.300781 C 51.398438 26.300781 51.800781 26.699219 51.800781 27.300781 L 51.800781 34.398438 C 51.800781 35 51.398438 35.398438 50.800781 35.398438 L 43.699219 35.398438 C 43.199219 35.398438 42.699219 34.898438 42.699219 34.398438 Z M 42.699219 34.398438 "/>
<path style=" stroke:none;fill-rule:nonzero;fill:rgb(0%,0%,0%);fill-opacity:1;" d="M 34.199219 40.898438 L 27.101562 40.898438 C 25.398438 40.898438 24.101562 42.199219 24.101562 43.898438 L 24.101562 51 C 24.101562 52.699219 25.398438 54 27.101562 54 L 34.199219 54 C 35.898438 54 37.199219 52.699219 37.199219 51 L 37.199219 43.898438 C 37.199219 42.199219 35.898438 40.898438 34.199219 40.898438 Z M 35.199219 51 C 35.199219 51.601562 34.800781 52 34.199219 52 L 27.101562 52 C 26.5 52 26.101562 51.601562 26.101562 51 L 26.101562 43.898438 C 26.101562 43.300781 26.5 42.898438 27.101562 42.898438 L 34.199219 42.898438 C 34.800781 42.898438 35.199219 43.300781 35.199219 43.898438 Z M 35.199219 51 "/>
<path style=" stroke:none;fill-rule:nonzero;fill:rgb(0%,0%,0%);fill-opacity:1;" d="M 15.101562 40.898438 L 10.5 40.898438 C 8.800781 40.898438 7.5 42.199219 7.5 43.898438 L 7.5 51 C 7.5 52.699219 8.800781 54 10.5 54 L 17.601562 54 C 19.300781 54 20.601562 52.699219 20.601562 51 L 20.601562 46.800781 C 20.601562 46.199219 20.199219 45.800781 19.601562 45.800781 C 19 45.800781 18.601562 46.199219 18.601562 46.800781 L 18.601562 51 C 18.601562 51.601562 18.199219 52 17.601562 52 L 10.5 52 C 9.898438 52 9.5 51.601562 9.5 51 L 9.5 43.898438 C 9.5 43.300781 9.898438 42.898438 10.5 42.898438 L 15.101562 42.898438 C 15.699219 42.898438 16.101562 42.5 16.101562 41.898438 C 16.101562 41.300781 15.699219 40.898438 15.101562 40.898438 Z M 15.101562 40.898438 "/>
<path style=" stroke:none;fill-rule:nonzero;fill:rgb(0%,0%,0%);fill-opacity:1;" d="M 12.601562 45.800781 C 12.199219 45.398438 11.601562 45.398438 11.199219 45.800781 C 10.800781 46.199219 10.800781 46.800781 11.199219 47.199219 L 13.300781 49.398438 C 13.5 49.601562 13.699219 49.699219 14 49.699219 C 14.300781 49.699219 14.5 49.601562 14.699219 49.300781 L 20 43 C 20.398438 42.601562 20.300781 41.898438 19.898438 41.601562 C 19.5 41.199219 18.800781 41.300781 18.5 41.699219 L 13.898438 47.199219 Z M 12.601562 45.800781 "/>
<path style=" stroke:none;fill-rule:nonzero;fill:rgb(0%,0%,0%);fill-opacity:1;" d="M 37.199219 30.199219 C 37.199219 29.601562 36.800781 29.199219 36.199219 29.199219 C 35.601562 29.199219 35.199219 29.601562 35.199219 30.199219 L 35.199219 34.398438 C 35.199219 35 34.800781 35.398438 34.199219 35.398438 L 27.101562 35.398438 C 26.5 35.398438 26.101562 35 26.101562 34.398438 L 26.101562 27.300781 C 26.101562 26.699219 26.5 26.300781 27.101562 26.300781 L 31.699219 26.300781 C 32.300781 26.300781 32.699219 25.898438 32.699219 25.300781 C 32.699219 24.699219 32.300781 24.300781 31.699219 24.300781 L 27.101562 24.300781 C 25.398438 24.300781 24.101562 25.601562 24.101562 27.300781 L 24.101562 34.398438 C 24.101562 36.101562 25.398438 37.398438 27.101562 37.398438 L 34.199219 37.398438 C 35.898438 37.398438 37.199219 36.101562 37.199219 34.398438 Z M 37.199219 30.199219 "/>
<path style=" stroke:none;fill-rule:nonzero;fill:rgb(0%,0%,0%);fill-opacity:1;" d="M 29.199219 29.199219 C 28.800781 28.800781 28.199219 28.800781 27.800781 29.199219 C 27.398438 29.601562 27.398438 30.199219 27.800781 30.601562 L 29.898438 32.800781 C 30.300781 33.199219 31 33.199219 31.398438 32.699219 L 36.800781 26.398438 C 37 26 37 25.398438 36.5 25 C 36.101562 24.601562 35.398438 24.699219 35.101562 25.101562 L 30.5 30.601562 Z M 29.199219 29.199219 "/>
<path style=" stroke:none;fill-rule:nonzero;fill:rgb(0%,0%,0%);fill-opacity:1;" d="M 52.699219 44.398438 C 53.300781 44.398438 53.699219 43.898438 53.699219 43.398438 C 53.699219 42.898438 53.300781 42.398438 52.699219 42.398438 C 52.199219 42.398438 51.699219 42.800781 51.699219 43.398438 C 51.699219 43.898438 52.199219 44.398438 52.699219 44.398438 Z M 52.699219 44.398438 "/>
<path style=" stroke:none;fill-rule:nonzero;fill:rgb(0%,0%,0%);fill-opacity:1;" d="M 52.699219 60.898438 C 52.101562 60.898438 51.699219 61.398438 51.699219 61.898438 C 51.699219 62.398438 52.101562 62.898438 52.699219 62.898438 C 53.199219 62.898438 53.699219 62.5 53.699219 61.898438 C 53.699219 61.398438 53.300781 60.898438 52.699219 60.898438 Z M 52.699219 60.898438 "/>
<path style=" stroke:none;fill-rule:nonzero;fill:rgb(0%,0%,0%);fill-opacity:1;" d="M 45.101562 46.101562 C 45.101562 46.601562 45.5 47.101562 46.101562 47.101562 C 46.699219 47.101562 47.101562 46.699219 47.101562 46.101562 C 47.101562 45.601562 46.699219 45.101562 46.101562 45.101562 C 45.601562 45.101562 45.101562 45.601562 45.101562 46.101562 Z M 45.101562 46.101562 "/>
<path style=" stroke:none;fill-rule:nonzero;fill:rgb(0%,0%,0%);fill-opacity:1;" d="M 59.199219 58.199219 C 58.601562 58.199219 58.199219 58.699219 58.199219 59.199219 C 58.199219 59.699219 58.601562 60.199219 59.199219 60.199219 C 59.800781 60.199219 60.199219 59.800781 60.199219 59.199219 C 60.199219 58.699219 59.800781 58.199219 59.199219 58.199219 Z M 59.199219 58.199219 "/>
<path style=" stroke:none;fill-rule:nonzero;fill:rgb(0%,0%,0%);fill-opacity:1;" d="M 42.398438 52.699219 C 42.398438 53.300781 42.800781 53.699219 43.398438 53.699219 C 44 53.699219 44.398438 53.199219 44.398438 52.699219 C 44.398438 52.199219 44 51.699219 43.398438 51.699219 C 42.800781 51.699219 42.398438 52.199219 42.398438 52.699219 Z M 42.398438 52.699219 "/>
<path style=" stroke:none;fill-rule:nonzero;fill:rgb(0%,0%,0%);fill-opacity:1;" d="M 61.898438 53.699219 C 62.5 53.699219 62.898438 53.199219 62.898438 52.699219 C 62.898438 52.199219 62.5 51.699219 61.898438 51.699219 C 61.300781 51.699219 60.898438 52.101562 60.898438 52.699219 C 60.898438 53.300781 61.398438 53.699219 61.898438 53.699219 Z M 61.898438 53.699219 "/>
<path style=" stroke:none;fill-rule:nonzero;fill:rgb(0%,0%,0%);fill-opacity:1;" d="M 46.101562 58.300781 C 45.601562 58.300781 45.101562 58.699219 45.101562 59.300781 C 45.101562 59.898438 45.601562 60.300781 46.101562 60.300781 C 46.601562 60.300781 47.101562 59.898438 47.101562 59.300781 C 47.101562 58.699219 46.699219 58.300781 46.101562 58.300781 Z M 46.101562 58.300781 "/>
<path style=" stroke:none;fill-rule:nonzero;fill:rgb(0%,0%,0%);fill-opacity:1;" d="M 59.199219 47.199219 C 59.800781 47.199219 60.199219 46.699219 60.199219 46.199219 C 60.199219 45.699219 59.800781 45.199219 59.199219 45.199219 C 58.699219 45.199219 58.199219 45.601562 58.199219 46.199219 C 58.199219 46.800781 58.699219 47.199219 59.199219 47.199219 Z M 59.199219 47.199219 "/>
<path style=" stroke:none;fill-rule:nonzero;fill:rgb(0%,0%,0%);fill-opacity:1;" d="M 55.300781 54.101562 C 55.5 53.699219 55.699219 53.199219 55.699219 52.601562 C 55.699219 51.398438 55 50.199219 53.699219 49.800781 L 53.699219 46.800781 C 53.699219 46.199219 53.199219 45.800781 52.699219 45.800781 C 52.101562 45.800781 51.699219 46.300781 51.699219 46.800781 L 51.699219 49.699219 C 50.5 50.101562 49.699219 51.199219 49.699219 52.5 C 49.699219 54.199219 51 55.5 52.699219 55.5 C 53.101562 55.5 53.5 55.398438 53.800781 55.300781 L 55.699219 57.199219 C 55.898438 57.398438 56.199219 57.5 56.398438 57.5 C 56.601562 57.5 56.898438 57.398438 57.101562 57.199219 C 57.5 56.800781 57.5 56.199219 57.101562 55.800781 Z M 52.699219 53.601562 C 52.199219 53.601562 51.699219 53.199219 51.699219 52.601562 C 51.699219 52 52.101562 51.601562 52.699219 51.601562 C 53.199219 51.601562 53.699219 52 53.699219 52.601562 C 53.699219 53.199219 53.300781 53.601562 52.699219 53.601562 Z M 52.699219 53.601562 "/>
<path style=" stroke:none;fill-rule:nonzero;fill:rgb(0%,0%,0%);fill-opacity:1;" d="M 16.898438 15.101562 C 19.199219 15.101562 21 13.199219 21 11 L 21 6.199219 C 21 3.898438 19.101562 2.101562 16.898438 2.101562 C 14.699219 2.101562 12.800781 4 12.800781 6.199219 L 12.800781 7.699219 L 6.300781 7.699219 C 3.898438 7.699219 2 9.601562 2 12 L 2 55.199219 C 2 57.601562 3.898438 59.5 6.300781 59.5 L 36.898438 59.5 C 37.5 59.5 37.898438 59.101562 37.898438 58.5 C 37.898438 57.898438 37.5 57.5 36.898438 57.5 L 6.300781 57.5 C 5 57.5 4 56.5 4 55.199219 L 4 20.800781 L 57.300781 20.800781 L 57.300781 40.300781 C 55.800781 39.800781 54.300781 39.5 52.699219 39.5 C 52.699219 39.5 52.699219 39.5 52.601562 39.5 C 45.300781 39.5 39.300781 45.5 39.398438 52.800781 C 39.398438 60.101562 45.398438 66 52.699219 66 L 52.800781 66 C 60 66 65.800781 60.300781 66 53.199219 C 66.101562 48.101562 63.601562 43.699219 59.398438 41.199219 L 59.398438 12 C 59.398438 9.601562 57.5 7.699219 55.101562 7.699219 L 48.601562 7.699219 L 48.601562 6.199219 C 48.601562 3.898438 46.699219 2.101562 44.5 2.101562 C 42.300781 2.101562 40.398438 4 40.398438 6.199219 L 40.398438 11 C 40.398438 13.300781 42.300781 15.101562 44.5 15.101562 C 46.699219 15.101562 48.601562 13.199219 48.601562 11 L 48.601562 9.699219 L 55 9.699219 C 56.300781 9.699219 57.300781 10.699219 57.300781 12 L 57.300781 18.800781 L 4 18.800781 L 4 12 C 4 10.699219 5 9.699219 6.300781 9.699219 L 12.800781 9.699219 L 12.800781 11 C 12.800781 13.199219 14.601562 15.101562 16.898438 15.101562 Z M 64 53.101562 C 63.800781 59.199219 58.898438 63.898438 52.800781 64 C 46.601562 64 41.601562 59 41.5 52.800781 C 41.5 46.601562 46.5 41.5 52.699219 41.5 C 58.898438 41.398438 64.199219 46.398438 64 53.101562 Z M 44.398438 13.101562 C 43.199219 13.101562 42.300781 12.101562 42.300781 11 L 42.300781 6.199219 C 42.300781 5 43.300781 4.101562 44.398438 4.101562 C 45.5 4.101562 46.5 5.101562 46.5 6.199219 C 46.5 6.398438 46.5 11.199219 46.5 10.898438 C 46.601562 12.101562 45.601562 13.101562 44.398438 13.101562 Z M 16.898438 4.101562 C 18.101562 4.101562 19 5.101562 19 6.199219 L 19 11 C 19 12.199219 18 13.101562 16.898438 13.101562 C 15.800781 13.101562 14.800781 12.101562 14.800781 11 C 14.800781 10.898438 14.800781 6.199219 14.800781 6.300781 C 14.800781 5 15.699219 4.101562 16.898438 4.101562 Z M 16.898438 4.101562 "/>
</g>
</svg>
