<?xml version="1.0" encoding="UTF-8"?>
<svg xmlns="http://www.w3.org/2000/svg" xmlns:xlink="http://www.w3.org/1999/xlink" width="68px" height="68px" viewBox="0 0 68 68" version="1.1">
<g id="surface1">
<path style=" stroke:none;fill-rule:nonzero;fill:rgb(0%,0%,0%);fill-opacity:1;" d="M 11.101562 29.699219 C 10.601562 29.800781 10.199219 30.199219 10.199219 30.699219 L 10.199219 37.300781 C 10.199219 37.800781 10.601562 38.199219 11.101562 38.300781 L 15.898438 38.898438 C 16.300781 40.5 17 42 17.800781 43.398438 L 14.800781 47.199219 C 14.5 47.601562 14.5 48.199219 14.898438 48.5 L 19.5 53.101562 C 19.898438 53.5 20.398438 53.5 20.800781 53.199219 L 24.601562 50.199219 C 26 51 27.601562 51.699219 29.101562 52.101562 L 29.699219 56.898438 C 29.800781 57.398438 30.199219 57.800781 30.699219 57.800781 L 37.300781 57.800781 C 37.800781 57.800781 38.199219 57.398438 38.300781 56.898438 L 38.898438 52.101562 C 40.5 51.699219 42 51 43.398438 50.199219 L 47.199219 53.199219 C 47.601562 53.5 48.199219 53.5 48.5 53.101562 L 53.101562 48.5 C 53.5 48.101562 53.5 47.601562 53.199219 47.199219 L 50.199219 43.398438 C 51 42 51.699219 40.398438 52.101562 38.898438 L 56.898438 38.300781 C 57.398438 38.199219 57.800781 37.800781 57.800781 37.300781 L 57.800781 30.699219 C 57.800781 30.199219 57.398438 29.800781 56.898438 29.699219 L 52.101562 29.101562 C 51.699219 27.5 51 26 50.199219 24.601562 L 53.199219 20.800781 C 53.5 20.398438 53.5 19.800781 53.101562 19.5 L 48.5 14.898438 C 48.101562 14.5 47.601562 14.5 47.199219 14.800781 L 43.398438 17.800781 C 42 17 40.398438 16.300781 38.898438 15.898438 L 38.300781 11.101562 C 38.199219 10.601562 37.800781 10.199219 37.300781 10.199219 L 30.699219 10.199219 C 30.199219 10.199219 29.800781 10.601562 29.699219 11.101562 L 29.101562 15.898438 C 27.5 16.300781 26 17 24.601562 17.800781 L 20.800781 14.800781 C 20.398438 14.5 19.800781 14.5 19.5 14.898438 L 14.898438 19.5 C 14.5 19.898438 14.5 20.398438 14.800781 20.800781 L 17.800781 24.601562 C 17 26 16.300781 27.601562 15.898438 29.101562 Z M 17.601562 30.300781 C 18 28.398438 18.699219 26.699219 19.800781 25.101562 C 20 24.699219 20 24.300781 19.699219 23.898438 L 16.800781 20.300781 L 20.199219 16.898438 L 23.800781 19.800781 C 24.101562 20.101562 24.601562 20.101562 25 19.898438 C 26.601562 18.898438 28.398438 18.199219 30.199219 17.699219 C 30.601562 17.601562 30.898438 17.300781 31 16.800781 L 31.5 12.199219 L 36.300781 12.199219 L 36.800781 16.800781 C 36.898438 17.199219 37.199219 17.601562 37.601562 17.699219 C 39.5 18.101562 41.199219 18.800781 42.800781 19.898438 C 43.199219 20.101562 43.601562 20.101562 44 19.800781 L 47.601562 16.898438 L 51 20.300781 L 48.101562 23.898438 C 47.800781 24.199219 47.800781 24.699219 48 25.101562 C 49 26.699219 49.699219 28.5 50.199219 30.300781 C 50.300781 30.699219 50.601562 31 51.101562 31.101562 L 55.699219 31.601562 L 55.699219 36.398438 L 51.101562 36.898438 C 50.699219 37 50.300781 37.300781 50.199219 37.699219 C 49.800781 39.601562 49.101562 41.300781 48 42.898438 C 47.800781 43.300781 47.800781 43.699219 48.101562 44.101562 L 51 47.699219 L 47.601562 51.101562 L 44 48.199219 C 43.699219 47.898438 43.199219 47.898438 42.800781 48.101562 C 41.199219 49.101562 39.398438 49.800781 37.601562 50.300781 C 37.199219 50.398438 36.898438 50.699219 36.800781 51.199219 L 36.300781 55.800781 L 31.5 55.800781 L 31 51.199219 C 30.898438 50.800781 30.601562 50.398438 30.199219 50.300781 C 28.300781 49.898438 26.601562 49.199219 25 48.101562 C 24.601562 47.898438 24.199219 47.898438 23.800781 48.199219 L 20.199219 51.101562 L 16.800781 47.699219 L 19.699219 44.101562 C 20 43.800781 20 43.300781 19.800781 42.898438 C 18.800781 41.300781 18.101562 39.5 17.601562 37.699219 C 17.5 37.300781 17.199219 37 16.699219 36.898438 L 12.101562 36.398438 L 12.101562 31.601562 L 16.699219 31.101562 C 17.199219 31 17.5 30.699219 17.601562 30.300781 Z M 17.601562 30.300781 "/>
<path style=" stroke:none;fill-rule:nonzero;fill:rgb(0%,0%,0%);fill-opacity:1;" d="M 34 47.398438 C 41.398438 47.398438 47.398438 41.398438 47.398438 34 C 47.398438 26.601562 41.398438 20.601562 34 20.601562 C 26.601562 20.601562 20.601562 26.601562 20.601562 34 C 20.601562 41.398438 26.601562 47.398438 34 47.398438 Z M 34 22.601562 C 40.300781 22.601562 45.398438 27.699219 45.398438 34 C 45.398438 40.300781 40.300781 45.398438 34 45.398438 C 27.699219 45.398438 22.601562 40.300781 22.601562 34 C 22.601562 27.699219 27.699219 22.601562 34 22.601562 Z M 34 22.601562 "/>
<path style=" stroke:none;fill-rule:nonzero;fill:rgb(0%,0%,0%);fill-opacity:1;" d="M 34 35 C 34.898438 35 35.601562 35.699219 35.601562 36.601562 C 35.601562 37.5 34.898438 38.199219 34 38.199219 C 33.300781 38.199219 32.699219 37.699219 32.398438 37.101562 C 32.199219 36.601562 31.699219 36.300781 31.101562 36.5 C 30.601562 36.699219 30.300781 37.199219 30.5 37.800781 C 30.898438 39 31.898438 39.898438 33 40.199219 L 33 41 C 33 41.601562 33.398438 42 34 42 C 34.601562 42 35 41.601562 35 41 L 35 40.101562 C 36.5 39.601562 37.601562 38.300781 37.601562 36.601562 C 37.601562 34.601562 36 33 34 33 C 33.101562 33 32.398438 32.300781 32.398438 31.398438 C 32.398438 30.5 33.101562 29.800781 34 29.800781 C 34.699219 29.800781 35.300781 30.300781 35.601562 30.898438 C 35.800781 31.398438 36.300781 31.699219 36.898438 31.5 C 37.398438 31.300781 37.699219 30.800781 37.5 30.199219 C 37.101562 29 36.101562 28.101562 35 27.800781 L 35 27 C 35 26.398438 34.601562 26 34 26 C 33.398438 26 33 26.398438 33 27 L 33 27.898438 C 31.5 28.398438 30.398438 29.699219 30.398438 31.398438 C 30.398438 33.398438 32 35 34 35 Z M 34 35 "/>
<path style=" stroke:none;fill-rule:nonzero;fill:rgb(0%,0%,0%);fill-opacity:1;" d="M 61.699219 47.898438 C 62.199219 48.101562 62.800781 47.898438 63 47.398438 C 65 43.199219 66 38.699219 66 34 C 66 16.398438 51.601562 2 34 2 C 26 2 18.5 4.898438 12.699219 10.199219 L 12.699219 7.800781 C 12.699219 7.199219 12.300781 6.800781 11.699219 6.800781 C 11.101562 6.800781 10.699219 7.199219 10.699219 7.800781 L 10.699219 12.5 C 10.699219 13.101562 11.101562 13.5 11.699219 13.5 L 16.398438 13.5 C 17 13.5 17.398438 13.101562 17.398438 12.5 C 17.398438 11.898438 17 11.5 16.398438 11.5 L 14.101562 11.5 C 19.601562 6.699219 26.601562 4 34 4 C 50.5 4 64 17.5 64 34 C 64 38.398438 63.101562 42.601562 61.300781 46.5 C 61 47 61.199219 47.601562 61.699219 47.898438 Z M 61.699219 47.898438 "/>
<path style=" stroke:none;fill-rule:nonzero;fill:rgb(0%,0%,0%);fill-opacity:1;" d="M 60.5 51.601562 C 60.5 51.101562 60 50.601562 59.5 50.601562 L 54.800781 50.601562 C 54.199219 50.601562 53.800781 51 53.800781 51.601562 C 53.800781 52.199219 54.199219 52.601562 54.800781 52.601562 L 57.601562 52.601562 C 51.898438 59.800781 43.199219 64 34 64 C 17.5 64 4 50.5 4 34 C 4 28.199219 5.699219 22.601562 8.800781 17.699219 C 9.101562 17.199219 9 16.601562 8.5 16.300781 C 8 16 7.398438 16.199219 7.101562 16.601562 C 3.800781 21.800781 2 27.800781 2 34 C 2 51.601562 16.398438 66 34 66 C 43.5 66 52.5 61.699219 58.5 54.5 L 58.5 56.300781 C 58.5 56.898438 58.898438 57.300781 59.5 57.300781 C 60.101562 57.300781 60.5 56.898438 60.5 56.300781 Z M 60.5 51.601562 "/>
</g>
</svg>
