<?xml version="1.0" encoding="UTF-8"?>
<svg xmlns="http://www.w3.org/2000/svg" xmlns:xlink="http://www.w3.org/1999/xlink" width="40px" height="40px" viewBox="0 0 40 40" version="1.1">
<g id="surface1">
<path style=" stroke:none;fill-rule:nonzero;fill:rgb(0%,0%,0%);fill-opacity:1;" d="M 22.230469 18.480469 C 22.417969 18.480469 22.609375 18.40625 22.753906 18.261719 L 34.09375 6.921875 L 34.09375 14.03125 C 34.09375 14.441406 34.425781 14.773438 34.835938 14.773438 C 35.246094 14.773438 35.578125 14.441406 35.578125 14.03125 L 35.578125 5.132812 C 35.578125 5.035156 35.558594 4.941406 35.519531 4.851562 C 35.445312 4.667969 35.300781 4.523438 35.117188 4.449219 C 35.019531 4.40625 34.917969 4.394531 34.8125 4.394531 C 34.800781 4.394531 34.796875 4.390625 34.785156 4.390625 L 25.886719 4.390625 C 25.480469 4.390625 25.148438 4.722656 25.148438 5.132812 C 25.148438 5.542969 25.480469 5.875 25.886719 5.875 L 33.042969 5.875 L 21.703125 17.214844 C 21.414062 17.503906 21.414062 17.972656 21.703125 18.261719 C 21.847656 18.410156 22.039062 18.480469 22.230469 18.480469 Z M 22.230469 18.480469 "/>
<path style=" stroke:none;fill-rule:nonzero;fill:rgb(0%,0%,0%);fill-opacity:1;" d="M 39.570312 30.335938 C 38.082031 27.523438 32.910156 24.472656 32.683594 24.335938 C 31.738281 23.796875 30.757812 23.625 29.925781 23.859375 C 29.300781 24.03125 28.789062 24.425781 28.445312 25.003906 C 27.6875 25.910156 26.75 26.964844 26.523438 27.128906 C 24.765625 28.320312 23.371094 28.179688 21.855469 26.664062 L 13.339844 18.148438 C 11.820312 16.628906 11.683594 15.234375 12.871094 13.480469 C 13.035156 13.253906 14.09375 12.3125 15 11.558594 C 15.574219 11.210938 15.972656 10.703125 16.144531 10.078125 C 16.375 9.242188 16.207031 8.265625 15.660156 7.308594 C 15.53125 7.089844 12.480469 1.917969 9.664062 0.429688 C 8.238281 -0.324219 6.511719 -0.0664062 5.367188 1.078125 L 3.484375 2.957031 C 0.507812 5.933594 -0.570312 9.308594 0.28125 12.984375 C 0.988281 16.046875 3.054688 19.308594 6.421875 22.675781 L 17.328125 33.578125 C 21.597656 37.851562 25.675781 40 29.414062 40 C 32.15625 40 34.71875 38.839844 37.042969 36.515625 L 38.925781 34.636719 C 40.066406 33.492188 40.328125 31.765625 39.570312 30.335938 Z M 37.875 33.585938 L 35.996094 35.46875 C 31.125 40.335938 25.195312 39.351562 18.375 32.53125 L 7.472656 21.625 C 4.304688 18.460938 2.371094 15.4375 1.726562 12.652344 C 0.988281 9.460938 1.90625 6.632812 4.535156 4.007812 L 6.414062 2.125 C 6.835938 1.707031 7.390625 1.488281 7.949219 1.488281 C 8.296875 1.488281 8.644531 1.570312 8.96875 1.742188 C 11.414062 3.035156 14.351562 8.011719 14.375 8.054688 C 14.710938 8.636719 14.835938 9.246094 14.714844 9.679688 C 14.640625 9.949219 14.476562 10.152344 14.207031 10.300781 L 14.097656 10.378906 C 13.464844 10.90625 11.957031 12.183594 11.644531 12.648438 C 11.191406 13.320312 10.890625 13.976562 10.730469 14.625 C 10.203125 13.574219 9.777344 12.355469 9.636719 11.003906 C 9.59375 10.597656 9.234375 10.3125 8.824219 10.34375 C 8.414062 10.386719 8.117188 10.75 8.160156 11.160156 C 8.695312 16.316406 12.707031 19.671875 12.875 19.8125 C 12.894531 19.824219 12.917969 19.832031 12.9375 19.84375 L 20.804688 27.714844 C 20.839844 27.746094 20.875 27.777344 20.90625 27.808594 C 20.933594 27.847656 20.949219 27.890625 20.984375 27.925781 C 21.125 28.0625 24.472656 31.3125 29.585938 31.839844 C 29.613281 31.84375 29.636719 31.84375 29.664062 31.84375 C 30.039062 31.84375 30.359375 31.5625 30.398438 31.179688 C 30.441406 30.773438 30.144531 30.410156 29.738281 30.367188 C 28.171875 30.203125 26.78125 29.742188 25.625 29.210938 C 26.191406 29.039062 26.769531 28.757812 27.355469 28.359375 C 27.820312 28.046875 29.097656 26.539062 29.625 25.90625 L 29.699219 25.796875 C 29.851562 25.53125 30.054688 25.363281 30.320312 25.289062 C 30.757812 25.171875 31.367188 25.292969 31.941406 25.621094 C 31.992188 25.652344 36.96875 28.589844 38.261719 31.03125 C 38.710938 31.882812 38.554688 32.90625 37.875 33.585938 Z M 37.875 33.585938 "/>
</g>
</svg>
